<svg xmlns="http://www.w3.org/2000/svg" width="22.001" height="22" viewBox="0 0 22.001 22">
  <path id="graph" d="M21.081,20.168H19.25V19.25h-.919v.919H16.5V19.25h-.918v.919H13.752V19.25h-.918v.919H11V19.25h-.918v.919H8.252V19.25H7.334v.919H3.3l4.831-2.9,2.39-6.987,3.551,6.242L20.953,5.055l-1.571-.944-5.268,8.778L10.1,5.838l-3.492,10.2-4.78,2.873V0H0V22H22V19.25H21.08ZM21.081,0H22V.918h-.919Zm-2.75,0h.919V.918h-.919ZM15.584,0H16.5V.918h-.918Zm-2.75,0h.918V.918h-.918Zm-2.75,0H11V.918h-.918ZM7.334,0h.919V.918H7.334ZM4.584,0H5.5V.918H4.584ZM1.834,0h.918V.918H1.834ZM21.081,2.75H22v.918h-.919Zm-2.75,0h.919v.918h-.919Zm-2.747,0H16.5v.918h-.918Zm-2.75,0h.918v.918h-.918Zm-2.75,0H11v.918h-.918Zm-2.75,0h.919v.918H7.334Zm-2.75,0H5.5v.918H4.584Zm-2.75,0h.918v.918H1.834ZM21.081,5.5H22v.918h-.919Zm-5.5,0H16.5v.918h-.918Zm-2.75,0h.918v.918h-.918Zm-5.5,0h.919v.918H7.334Zm-2.75,0H5.5v.918H4.584Zm-2.75,0h.918v.918H1.834Zm19.247,2.75H22v.918h-.919Zm-8.247,0h.918v.918h-.918Zm-5.5,0h.919v.918H7.334Zm-2.75,0H5.5v.918H4.584Zm-2.75,0h.918v.918H1.834ZM21.081,11H22v.918h-.919Zm-2.75,0h.919v.918h-.919ZM4.584,11H5.5v.918H4.584Zm-2.75,0h.918v.918H1.834Zm19.247,2.75H22v.919h-.919Zm-2.75,0h.919v.919h-.919Zm-8.247,0H11v.919h-.918Zm-5.5,0H5.5v.919H4.584Zm-2.75,0h.918v.919H1.834ZM21.081,16.5H22v.919h-.919Zm-2.75,0h.919v.919h-.919Zm-2.747,0H16.5v.919h-.918Zm-5.5,0H11v.919h-.918Zm-8.25,0h.918v.919H1.834Z" transform="translate(0.001)" fill="#64bbe0"/>
</svg>
