<svg id="Group_433" data-name="Group 433" xmlns="http://www.w3.org/2000/svg" width="32" height="32" viewBox="0 0 32 32">
  <circle id="Ellipse_36" data-name="Ellipse 36" cx="16" cy="16" r="16" fill="#ccd7dd"/>
  <path id="user2" d="M16.811,14.706a8.556,8.556,0,0,0-5.284-4.8,8.048,8.048,0,0,0,1.251-4.663A4.039,4.039,0,0,0,8.625,1.018,4.041,4.041,0,0,0,4.4,5.172,8.055,8.055,0,0,0,5.567,9.856,8.553,8.553,0,0,0,.2,14.561l-.294.668.675.278a23.577,23.577,0,0,0,7.9,1.511,23.583,23.583,0,0,0,7.93-1.372l.68-.265-.282-.674ZM8.608,2.441a2.665,2.665,0,0,1,2.746,2.791c-.019,2.133-.6,3.755-1.589,4.45l-1.225.86-1.207-.88C6.353,8.95,5.8,7.318,5.822,5.185A2.663,2.663,0,0,1,8.608,2.442ZM8.5,15.593a22.673,22.673,0,0,1-6.65-1.144,7.487,7.487,0,0,1,5.205-3.515l1.487-.3,1.482.325a7.5,7.5,0,0,1,5.145,3.605A22.555,22.555,0,0,1,8.5,15.593Z" transform="translate(7.095 6.982)" fill="#fff"/>
</svg>
