<svg xmlns="http://www.w3.org/2000/svg" width="13.909" height="17" viewBox="0 0 13.909 17">
  <path id="lock" d="M16.363,7.515V5.2c0-1.546-1.546-3.864-5.409-3.864S5.546,3.651,5.546,5.2V7.515H4v8.5a2.321,2.321,0,0,0,2.318,2.318h9.273a2.321,2.321,0,0,0,2.318-2.318v-8.5ZM7.091,4.424s.773-1.546,3.864-1.546,3.864,1.546,3.864,1.546V7.515H7.091V4.424Zm9.273,11.591a.773.773,0,0,1-.773.773H6.318a.773.773,0,0,1-.773-.773V9.06H16.364v6.954Zm-6.181-2.533v1.759h1.546V13.482a1.546,1.546,0,1,0-1.546,0Z" transform="translate(-4 -1.333)" fill="#64bbe0"/>
</svg>
