<svg xmlns="http://www.w3.org/2000/svg" width="26.307" height="25.999" viewBox="0 0 26.307 25.999">
  <g id="money" transform="translate(0 -3)">
    <g id="Group_489" data-name="Group 489" transform="translate(15.412 16.01)">
      <g id="Group_488" data-name="Group 488">
        <path id="Path_2513" data-name="Path 2513" d="M302.112,259.909a.989.989,0,1,1,1.13-.978.514.514,0,1,0,1.028,0,2.044,2.044,0,0,0-1.644-1.948v-.267a.514.514,0,1,0-1.028,0v.267a2.044,2.044,0,0,0-1.644,1.948,2.089,2.089,0,0,0,2.158,2.006.989.989,0,1,1-1.13.978.514.514,0,0,0-1.028,0,2.044,2.044,0,0,0,1.644,1.948v.222a.514.514,0,1,0,1.028,0v-.222a2.044,2.044,0,0,0,1.644-1.948A2.089,2.089,0,0,0,302.112,259.909Z" transform="translate(-299.954 -256.201)" fill="#64bbe0"/>
      </g>
    </g>
    <g id="Group_491" data-name="Group 491" transform="translate(19.727 14.19)">
      <g id="Group_490" data-name="Group 490">
        <path id="Path_2514" data-name="Path 2514" d="M387.4,223.256a6.694,6.694,0,0,0-2.735-2.42.514.514,0,1,0-.445.926,5.657,5.657,0,0,1,2.548,7.748.514.514,0,1,0,.907.483,6.687,6.687,0,0,0-.275-6.737Z" transform="translate(-383.924 -220.785)" fill="#64bbe0"/>
      </g>
    </g>
    <g id="Group_493" data-name="Group 493" transform="translate(17.829 13.585)">
      <g id="Group_492" data-name="Group 492">
        <path id="Path_2515" data-name="Path 2515" d="M347.548,209h-.035a.514.514,0,1,0,0,1.028h.032a.514.514,0,0,0,0-1.028Z" transform="translate(-347 -209.001)" fill="#64bbe0"/>
      </g>
    </g>
    <g id="Group_495" data-name="Group 495" transform="translate(10.893 16.858)">
      <g id="Group_494" data-name="Group 494">
        <path id="Path_2516" data-name="Path 2516" d="M216.236,281.214a5.657,5.657,0,0,1-2.548-7.748.514.514,0,0,0-.907-.483,6.683,6.683,0,0,0,3.01,9.157.514.514,0,1,0,.445-.926Z" transform="translate(-212.002 -272.711)" fill="#64bbe0"/>
      </g>
    </g>
    <g id="Group_497" data-name="Group 497" transform="translate(16.256 25.916)">
      <g id="Group_496" data-name="Group 496" transform="translate(0 0)">
        <path id="Path_2517" data-name="Path 2517" d="M316.924,449h-.03a.514.514,0,0,0,0,1.028h.034a.514.514,0,1,0,0-1.028Z" transform="translate(-316.378 -448.999)" fill="#64bbe0"/>
      </g>
    </g>
    <g id="Group_499" data-name="Group 499" transform="translate(0 3)">
      <g id="Group_498" data-name="Group 498" transform="translate(0 0)">
        <path id="Path_2518" data-name="Path 2518" d="M19.906,11.846a2.359,2.359,0,0,0-.228-.42h1.338a2.364,2.364,0,1,0,0-4.727H16.9A2.362,2.362,0,0,0,14.952,3H2.364a2.364,2.364,0,0,0,0,4.727H6.478a2.357,2.357,0,0,0,0,2.672H5.138a2.362,2.362,0,0,0-1.469,4.213,2.359,2.359,0,0,0,0,3.7,2.359,2.359,0,0,0,0,3.7,2.362,2.362,0,0,0,1.469,4.213h6.055a8.733,8.733,0,1,0,8.712-14.378Zm1.109-4.119a1.336,1.336,0,1,1,0,2.672H8.427a1.336,1.336,0,0,1,0-2.672ZM2.364,6.7a1.336,1.336,0,0,1,0-2.672H14.952a1.336,1.336,0,1,1,0,2.672Zm2.775,4.727H17.727a1.335,1.335,0,0,1,.583.134c-.243-.02-.489-.031-.737-.031A8.708,8.708,0,0,0,11.391,14.1H5.138a1.336,1.336,0,1,1,0-2.672Zm0,3.7h5.375A8.71,8.71,0,0,0,9.193,17.8H5.138a1.336,1.336,0,1,1,0-2.672Zm0,3.7H8.957A8.742,8.742,0,0,0,8.925,21.5H5.138a1.336,1.336,0,1,1,0-2.672Zm0,6.371a1.336,1.336,0,0,1,0-2.672h4A8.7,8.7,0,0,0,10.368,25.2Zm12.434,2.775a7.707,7.707,0,1,1,7.707-7.707A7.716,7.716,0,0,1,17.572,27.971Z" transform="translate(0 -3)" fill="#64bbe0"/>
      </g>
    </g>
  </g>
</svg>
