<svg xmlns="http://www.w3.org/2000/svg" xmlns:xlink="http://www.w3.org/1999/xlink" width="303.499" height="26.841" viewBox="0 0 303.499 26.841">
  <defs>
    <clipPath id="clip-path">
      <rect width="303.499" height="26.841" fill="none"/>
    </clipPath>
  </defs>
  <g id="Repeat_Grid_2" data-name="Repeat Grid 2" clip-path="url(#clip-path)">
    <g id="Group_1" data-name="Group 1" transform="translate(-4825.501 -3263.083)">
      <path id="Path_31" data-name="Path 31" d="M6.957,9.2l-.025,24L-.045,26.226,0,2.247Z" transform="translate(4823.944 3266.414) rotate(-45)" fill="#fff" opacity="0.2"/>
      <path id="Path_32" data-name="Path 32" d="M6.957,9.2l-.025,24L-.045,26.226,0,2.247Z" transform="translate(4850.944 3266.414) rotate(-45)" fill="#fff" opacity="0.2"/>
    </g>
    <g id="Group_2" data-name="Group 2" transform="translate(-4771.501 -3263.083)">
      <path id="Path_33" data-name="Path 33" d="M6.957,9.2l-.025,24L-.045,26.226,0,2.247Z" transform="translate(4823.944 3266.414) rotate(-45)" fill="#fff" opacity="0.2"/>
      <path id="Path_34" data-name="Path 34" d="M6.957,9.2l-.025,24L-.045,26.226,0,2.247Z" transform="translate(4850.944 3266.414) rotate(-45)" fill="#fff" opacity="0.2"/>
    </g>
    <g id="Group_3" data-name="Group 3" transform="translate(-4717.501 -3263.083)">
      <path id="Path_35" data-name="Path 35" d="M6.957,9.2l-.025,24L-.045,26.226,0,2.247Z" transform="translate(4823.944 3266.414) rotate(-45)" fill="#fff" opacity="0.2"/>
      <path id="Path_36" data-name="Path 36" d="M6.957,9.2l-.025,24L-.045,26.226,0,2.247Z" transform="translate(4850.944 3266.414) rotate(-45)" fill="#fff" opacity="0.2"/>
    </g>
    <g id="Group_3-2" data-name="Group 3" transform="translate(-4663.501 -3263.083)">
      <path id="Path_35-2" data-name="Path 35" d="M6.957,9.2l-.025,24L-.045,26.226,0,2.247Z" transform="translate(4823.944 3266.414) rotate(-45)" fill="#fff" opacity="0.2"/>
      <path id="Path_36-2" data-name="Path 36" d="M6.957,9.2l-.025,24L-.045,26.226,0,2.247Z" transform="translate(4850.944 3266.414) rotate(-45)" fill="#fff" opacity="0.2"/>
    </g>
    <g id="Group_3-3" data-name="Group 3" transform="translate(-4609.501 -3263.083)">
      <path id="Path_35-3" data-name="Path 35" d="M6.957,9.2l-.025,24L-.045,26.226,0,2.247Z" transform="translate(4823.944 3266.414) rotate(-45)" fill="#fff" opacity="0.2"/>
      <path id="Path_36-3" data-name="Path 36" d="M6.957,9.2l-.025,24L-.045,26.226,0,2.247Z" transform="translate(4850.944 3266.414) rotate(-45)" fill="#fff" opacity="0.2"/>
    </g>
    <g id="Group_3-4" data-name="Group 3" transform="translate(-4555.501 -3263.083)">
      <path id="Path_35-4" data-name="Path 35" d="M6.957,9.2l-.025,24L-.045,26.226,0,2.247Z" transform="translate(4823.944 3266.414) rotate(-45)" fill="#fff" opacity="0.2"/>
      <path id="Path_36-4" data-name="Path 36" d="M6.957,9.2l-.025,24L-.045,26.226,0,2.247Z" transform="translate(4850.944 3266.414) rotate(-45)" fill="#fff" opacity="0.2"/>
    </g>
  </g>
</svg>
