<svg xmlns="http://www.w3.org/2000/svg" width="24.001" height="22" viewBox="0 0 24.001 22">
  <path id="users2" d="M23.588,20.293c-1.459-3.359-4.841-5.31-7.3-6.144,1.5-1.229,2.392-3.547,2.392-6.583a4.951,4.951,0,0,0-5.157-5.1,5.524,5.524,0,0,0-.965.1A4.984,4.984,0,0,0,9.328,1.333,4.486,4.486,0,0,0,4.691,5.92c0,2.678.782,4.729,2.109,5.833A9.237,9.237,0,0,0,.411,17L0,17.951l.963.38a22.9,22.9,0,0,0,3.062.889,9.909,9.909,0,0,0-.561,1.073l-.413.949.963.38a28.644,28.644,0,0,0,9.512,1.711,28.649,28.649,0,0,0,9.512-1.711l.962-.38Zm-6.9-12.726c0,3.431-1.21,5.562-3.157,5.562S10.37,11,10.37,7.567a2.981,2.981,0,0,1,3.152-3.1,2.984,2.984,0,0,1,3.162,3.1ZM9.329,3.333a3.4,3.4,0,0,1,.958.165A4.721,4.721,0,0,0,8.37,7.567a12.617,12.617,0,0,0,.338,3C7.236,10.095,6.692,7.948,6.692,5.92A2.493,2.493,0,0,1,9.329,3.333Zm0,10.046a7.2,7.2,0,0,1,.726.062,4.558,4.558,0,0,0,1.527,1.239,11.1,11.1,0,0,0-5.634,2.865,25.483,25.483,0,0,1-3.185-.72c2.147-3.38,6.374-3.445,6.566-3.446Zm4.2,7.954a30.128,30.128,0,0,1-8.071-1.214A7.692,7.692,0,0,1,6.7,18.212a10.991,10.991,0,0,1,6.822-2.762,10.686,10.686,0,0,1,1.755.216,10.868,10.868,0,0,1,5.974,4.451,27.165,27.165,0,0,1-7.726,1.216Z" transform="translate(0.001 -1.333)" fill="#64bbe0"/>
</svg>
