<svg xmlns="http://www.w3.org/2000/svg" width="21.966" height="14" viewBox="0 0 21.966 14">
  <g id="view" transform="translate(0 -92.835)" style="isolation: isolate">
    <g id="Group_566" data-name="Group 566" transform="translate(0 92.835)">
      <g id="Group_565" data-name="Group 565" transform="translate(0 0)">
        <path id="Path_2523" data-name="Path 2523" d="M21.826,99.408c-.2-.268-4.872-6.573-10.843-6.573S.335,99.139.139,99.408a.725.725,0,0,0,0,.855c.2.268,4.872,6.573,10.843,6.573s10.647-6.3,10.843-6.573A.724.724,0,0,0,21.826,99.408Zm-10.843,5.979c-4.4,0-8.208-4.184-9.336-5.552,1.126-1.369,4.928-5.551,9.336-5.551s8.208,4.184,9.336,5.552C19.192,101.2,15.391,105.387,10.983,105.387Z" transform="translate(0 -92.835)" fill="#64bbe0"/>
      </g>
    </g>
    <g id="Group_568" data-name="Group 568" transform="translate(6.638 95.49)">
      <g id="Group_567" data-name="Group 567" transform="translate(0 0)">
        <path id="Path_2524" data-name="Path 2524" d="M159.067,154.725a4.345,4.345,0,1,0,4.345,4.345A4.35,4.35,0,0,0,159.067,154.725Zm0,7.241a2.9,2.9,0,1,1,2.9-2.9A2.9,2.9,0,0,1,159.067,161.966Z" transform="translate(-154.722 -154.725)" fill="#64bbe0"/>
      </g>
    </g>
  </g>
</svg>
